{"title":"Bea Miller - Young Blood (2014.Pop)","uid":12466978,"size":100619376,"categoryP":"video","categoryS":"music_videos","magnet":"?xt=urn:btih:f546022af955fb3a497c12d1bfee8f1a95cee8ec&amp;dn=Bea+Miller+-+Young+Blood+%282014.Pop%29&amp;tr=udp%3A%2F%2Ftracker.openbittorrent.com%3A80&amp;tr=udp%3A%2F%2Fopen.demonii.com%3A1337&amp;tr=udp%3A%2F%2Ftracker.coppersurfer.tk%3A6969&amp;tr=udp%3A%2F%2Fexodus.desync.com%3A6969","seeders":0,"leechers":0,"uploader":"MeRaDil","files":1,"time":1442866507,"description":"BEA MILLER - YOUNG BLOOD\n\n &lt;a href=&quot;\nhttp://ultraimg.com/images/youngblood-1.png&quot; rel=&quot;nofollow&quot; target=&quot;_NEW&quot;&gt;\nhttp://ultraimg.com/images/youngblood-1.png&lt;/a&gt;\n &lt;a href=&quot;\nhttp://ultraimg.com/images/youngblood-2.png&quot; rel=&quot;nofollow&quot; target=&quot;_NEW&quot;&gt;\nhttp://ultraimg.com/images/youngblood-2.png&lt;/a&gt;\n &lt;a href=&quot;\nhttp://ultraimg.com/images/youngblood-3.png&quot; rel=&quot;nofollow&quot; target=&quot;_NEW&quot;&gt;\nhttp://ultraimg.com/images/youngblood-3.png&lt;/a&gt;\n\n\nMEDIA INFO\nGeneral\nBea Miller - Young Blood\nFormat                                   : MPEG-4\nFormat profile                           : Base Media\nCodec ID                                 : isom\nFile size                                : 96.0 MiB\nDuration                                 : 3mn 43s\nOverall bit rate                         : 3 597 Kbps\nMusicVid name                            : Young Blood\nAlbum                                    : Not An Apology\nPerformer                                : Bea Miller\nGenre                                    : Pop\nContentType                              : Music Video\nRecorded date                            : 2014\nRating                                   : ***\nMake                                     : MeRaDil\nArtist url                               : http://beamiller.com\nRelease date                             : USA . july 21 . 2014\n\nVideo\nID                                       : 1\nFormat                                   : AVC\nFormat/Info                              : Advanced Video Codec\nFormat profile                           : &lt;a class=&quot;__cf_email__&quot; href=&quot;/cdn-cgi/l/email-protection&quot; data-cfemail=&quot;5810313f3018146c7668&quot;&gt;[email&amp;#160;protected]&lt;/a&gt;&lt;script data-cfhash='f9e31' type=&quot;text/javascript&quot;&gt;\n/* &lt;![CDATA[ */!function(){try{var t=&quot;currentScript&quot;in document?document.currentScript:function(){for(var t=document.getElementsByTagName(&quot;script&quot;),e=t.length;e--;)if(t[e].getAttribute(&quot;data-cfhash&quot;))return t[e]}();if(t&amp;&amp;t.previousSibling){var e,r,n,i,c=t.previousSibling,a=c.getAttribute(&quot;data-cfemail&quot;);if(a){for(e=&quot;&quot;,r=parseInt(a.substr(0,2),16),n=2;a.length-n;n+=2)i=parseInt(a.substr(n,2),16)^r,e+=String.fromCharCode(i);e=document.createTextNode(e),c.parentNode.replaceChild(e,c)}t.parentNode.removeChild(t);}}catch(u){}}()/* ]]&gt; */&lt;/script&gt;\nFormat settings, CABAC                   : Yes\nFormat settings, ReFrames                : 2 frames\nCodec ID                                 : avc1\nCodec ID/Info                            : Advanced Video Coding\nDuration                                 : 3mn 43s\nBit rate                                 : 3 318 Kbps\nWidth                                    : 1 920 pixels\nHeight                                   : 1 080 pixels\nDisplay aspect ratio                     : 16:9\nFrame rate mode                          : Variable\nFrame rate                               : 23.976 fps\nMinimum frame rate                       : 23.974 fps\nMaximum frame rate                       : 23.981 fps\nColor space                              : YUV\nChroma subsampling                       : 4:2:0\nBit depth                                : 8 bits\nScan type                                : Progressive\nBits/(Pixel*Frame)                       : 0.067\nStream size                              : 88.5 MiB (92%)\n\nAudio\nID                                       : 2\nFormat                                   : AAC\nFormat/Info                              : Advanced Audio Codec\nFormat profile                           : LC\nCodec ID                                 : 40\nDuration                                 : 3mn 43s\nBit rate mode                            : Constant\nBit rate                                 : 256 Kbps\nChannel(s)                               : 2 channels\nChannel positions                        : Front: L R\nSampling rate                            : 44.1 KHz\nCompression mode                         : Lossy\nStream size                              : 6.83 MiB (7%)\n\nBea Miller * Not An Apology * Promo","torrent":{"xt":"urn:btih:f546022af955fb3a497c12d1bfee8f1a95cee8ec","amp;dn":"Bea+Miller+-+Young+Blood+%282014.Pop%29","amp;tr":["udp%3A%2F%2Ftracker.openbittorrent.com%3A80","udp%3A%2F%2Fopen.demonii.com%3A1337","udp%3A%2F%2Ftracker.coppersurfer.tk%3A6969","udp%3A%2F%2Fexodus.desync.com%3A6969"],"infoHash":"f546022af955fb3a497c12d1bfee8f1a95cee8ec","infoHashBuffer":{"type":"Buffer","data":[245,70,2,42,249,85,251,58,73,124,18,209,191,238,143,26,149,206,232,236]},"announce":[],"urlList":[]}}